<svg width="242" height="238" fill="none" xmlns="http://www.w3.org/2000/svg"><path d="M120.22 19.8V22h-9.73v-1.88l4.6-4.93c.46-.51.83-.96 1.1-1.35.26-.4.45-.76.57-1.07a2.57 2.57 0 0 0-.03-2.01 1.6 1.6 0 0 0-.63-.72 1.9 1.9 0 0 0-1.02-.26c-.43 0-.8.1-1.11.32-.3.2-.54.5-.7.86-.16.38-.24.8-.24 1.26h-2.82a4.6 4.6 0 0 1 2.31-4c.74-.43 1.61-.64 2.62-.64 1 0 1.84.16 2.52.48a3.4 3.4 0 0 1 1.56 1.4c.36.59.54 1.3.54 2.14 0 .47-.08.93-.23 1.38-.14.44-.36.88-.64 1.32-.27.44-.6.88-1 1.33-.39.45-.82.92-1.3 1.4l-2.47 2.77h6.1Zm11.72-3.11v2.2h-10.25l-.13-1.7 5.92-9.4h2.24l-2.42 4.04-2.95 4.86h7.59Zm-1.61-8.9V22h-2.82V7.78h2.82ZM93.3 23.35v2.2h-9.72v-1.88l4.6-4.93c.46-.52.82-.97 1.09-1.36.27-.4.46-.75.57-1.06a2.59 2.59 0 0 0-.03-2.01 1.6 1.6 0 0 0-.63-.73 1.9 1.9 0 0 0-1.02-.25c-.42 0-.8.1-1.1.3-.31.22-.55.5-.71.88-.16.37-.24.79-.24 1.26H83.3a4.59 4.59 0 0 1 2.32-4.02c.73-.42 1.6-.63 2.61-.63 1 0 1.84.16 2.52.49a3.4 3.4 0 0 1 1.57 1.38c.35.6.53 1.32.53 2.15 0 .47-.07.93-.22 1.38-.15.44-.37.89-.65 1.33-.27.43-.6.88-1 1.33-.38.45-.82.91-1.3 1.4l-2.46 2.77h6.1Zm4.64-6.14h1.5c.49 0 .88-.08 1.2-.24.3-.17.54-.4.69-.7.16-.31.23-.66.23-1.07 0-.36-.07-.68-.21-.96-.14-.3-.35-.51-.64-.67a2.17 2.17 0 0 0-1.08-.24c-.35 0-.66.07-.96.2-.29.14-.52.33-.7.58-.18.25-.26.54-.26.9h-2.83c0-.78.21-1.46.63-2.04.42-.58.99-1.04 1.7-1.36.7-.33 1.49-.49 2.34-.49.97 0 1.8.16 2.53.47.72.3 1.29.76 1.69 1.36.4.6.6 1.34.6 2.22 0 .45-.1.89-.3 1.31-.21.42-.51.8-.9 1.13-.39.34-.86.6-1.41.8-.56.2-1.18.3-1.87.3h-1.95v-1.5Zm0 2.14V17.9h1.95c.78 0 1.46.09 2.04.26a4.1 4.1 0 0 1 1.48.76c.4.33.7.72.9 1.16a4 4 0 0 1-.08 3.25c-.26.52-.61.96-1.08 1.32a4.9 4.9 0 0 1-1.6.82 7 7 0 0 1-3.77.02 5.26 5.26 0 0 1-1.56-.75 3.87 3.87 0 0 1-1.11-1.27 3.84 3.84 0 0 1-.41-1.82h2.82c0 .36.1.69.27.97.19.29.44.51.76.68.32.16.68.24 1.08.24.45 0 .83-.08 1.15-.24.33-.17.58-.4.74-.7.18-.31.27-.67.27-1.07 0-.52-.1-.94-.29-1.25a1.68 1.68 0 0 0-.8-.7 3.17 3.17 0 0 0-1.26-.23h-1.5ZM68.22 33.74v2.2h-9.73v-1.88l4.6-4.93c.46-.52.83-.97 1.1-1.36.26-.4.45-.75.57-1.07a2.59 2.59 0 0 0-.03-2.01 1.6 1.6 0 0 0-.63-.72 1.9 1.9 0 0 0-1.02-.25c-.43 0-.8.1-1.11.3-.3.22-.54.5-.7.88-.16.37-.24.79-.24 1.26h-2.82a4.59 4.59 0 0 1 2.31-4.02c.74-.42 1.61-.63 2.62-.63 1 0 1.84.16 2.52.49a3.4 3.4 0 0 1 1.56 1.38c.36.6.54 1.32.54 2.15 0 .47-.08.93-.22 1.38-.15.44-.37.89-.65 1.33-.27.43-.6.88-1 1.33-.39.45-.82.91-1.3 1.4l-2.46 2.77h6.09Zm11.48 0v2.2h-9.72v-1.88l4.6-4.93c.46-.52.82-.97 1.09-1.36.27-.4.46-.75.58-1.07a2.59 2.59 0 0 0-.03-2.01 1.6 1.6 0 0 0-.64-.72 1.9 1.9 0 0 0-1.01-.25c-.43 0-.8.1-1.12.3-.3.22-.54.5-.7.88-.16.37-.23.79-.23 1.26h-2.83a4.59 4.59 0 0 1 2.32-4.02c.73-.42 1.6-.63 2.62-.63 1 0 1.83.16 2.51.49a3.4 3.4 0 0 1 1.57 1.38c.36.6.53 1.32.53 2.15 0 .47-.07.93-.22 1.38-.15.44-.36.89-.64 1.33-.28.43-.61.88-1 1.33-.4.45-.82.91-1.3 1.4l-2.47 2.77h6.1ZM46.68 50.26v2.2h-9.73V50.6l4.6-4.94c.46-.51.83-.96 1.1-1.35.26-.4.46-.76.57-1.07a2.59 2.59 0 0 0-.03-2.01 1.6 1.6 0 0 0-.63-.72 1.9 1.9 0 0 0-1.02-.26c-.43 0-.8.1-1.11.32-.3.2-.54.5-.7.87-.16.37-.24.79-.24 1.26h-2.82a4.59 4.59 0 0 1 2.31-4.02c.74-.42 1.61-.63 2.62-.63 1 0 1.84.16 2.52.49a3.4 3.4 0 0 1 1.56 1.38c.36.6.54 1.32.54 2.15 0 .47-.07.93-.22 1.38-.15.44-.37.88-.65 1.33-.27.43-.6.87-1 1.32-.39.45-.82.92-1.3 1.4l-2.46 2.77h6.09Zm8.61-12.05v14.25h-2.81v-11l-3.38 1.07V40.3l5.89-2.1h.3ZM30.15 71.8V74h-9.72v-1.88l4.6-4.93c.46-.51.82-.96 1.09-1.35.27-.4.46-.76.58-1.07a2.59 2.59 0 0 0-.03-2.01 1.6 1.6 0 0 0-.64-.72 1.9 1.9 0 0 0-1.01-.26c-.43 0-.8.1-1.12.32-.3.2-.54.5-.7.86-.16.38-.24.8-.24 1.26h-2.82a4.59 4.59 0 0 1 2.32-4c.73-.43 1.6-.64 2.61-.64 1 0 1.84.16 2.52.48a3.4 3.4 0 0 1 1.57 1.4c.35.59.53 1.3.53 2.14 0 .47-.07.93-.22 1.38-.15.44-.37.88-.65 1.32-.27.44-.6.88-1 1.33-.38.45-.82.92-1.3 1.4l-2.46 2.77h6.1Zm11.33-6.16v2.46c0 1.07-.11 2-.34 2.77-.23.76-.56 1.4-.99 1.89a3.9 3.9 0 0 1-1.51 1.08 5.74 5.74 0 0 1-3.55.14 4.03 4.03 0 0 1-2.36-1.87 6.06 6.06 0 0 1-.64-1.72c-.15-.67-.23-1.43-.23-2.29v-2.46c0-1.07.12-1.98.34-2.74.24-.77.57-1.4.99-1.89.43-.49.94-.84 1.52-1.07a5.22 5.22 0 0 1 1.96-.35c.57 0 1.1.07 1.59.22a3.99 3.99 0 0 1 2.35 1.86c.28.47.5 1.04.65 1.7.15.66.22 1.42.22 2.27Zm-2.82 2.83v-3.21c0-.51-.03-.96-.09-1.35a3.96 3.96 0 0 0-.24-.97c-.11-.28-.25-.5-.41-.67a1.5 1.5 0 0 0-.56-.37c-.2-.08-.44-.12-.7-.12-.31 0-.6.07-.84.19s-.45.32-.62.6c-.17.26-.3.62-.39 1.07a8.8 8.8 0 0 0-.13 1.62v3.21c0 .52.03.97.08 1.36.06.4.14.73.26 1 .11.28.25.5.4.68.17.17.35.3.56.37a2.04 2.04 0 0 0 1.54-.07c.24-.13.45-.33.62-.6.18-.28.3-.65.4-1.1.08-.45.12-1 .12-1.64ZM16.9 84.83v14.25h-2.82v-11l-3.38 1.07v-2.22l5.89-2.1h.3Zm6.61 12.11h.19c.78 0 1.45-.09 2.01-.28a3.36 3.36 0 0 0 2.2-2.18 5.8 5.8 0 0 0 .27-1.81v-2.7c0-.51-.05-.97-.16-1.36a2.7 2.7 0 0 0-.43-.96c-.18-.26-.4-.46-.64-.59a1.66 1.66 0 0 0-1.63.04c-.24.15-.45.36-.62.62a3.3 3.3 0 0 0-.38.9 4.22 4.22 0 0 0 0 2.08c.09.33.21.62.38.87s.38.45.64.6c.25.14.55.21.9.21a2.05 2.05 0 0 0 1.56-.69 2.2 2.2 0 0 0 .59-1.46l.92.5c0 .46-.1.9-.29 1.35A4.15 4.15 0 0 1 27 94.15a3.4 3.4 0 0 1-1.47.32 3.86 3.86 0 0 1-3.08-1.38 4.6 4.6 0 0 1-.8-1.52 6.25 6.25 0 0 1 .07-3.83 4.51 4.51 0 0 1 2.48-2.69c.59-.26 1.25-.4 1.97-.4s1.38.15 1.97.43c.6.28 1.1.68 1.52 1.19.43.5.75 1.12.98 1.83.24.7.35 1.5.35 2.36v.98c0 .92-.1 1.78-.3 2.57-.2.8-.5 1.52-.89 2.16a6.09 6.09 0 0 1-3.48 2.69 8.6 8.6 0 0 1-2.58.36h-.23v-2.28ZM13.35 111.75V126h-2.81v-11l-3.38 1.07v-2.22l5.88-2.1h.3Zm14.2 10.35c0 .9-.2 1.65-.62 2.26-.41.6-.99 1.06-1.72 1.38-.72.3-1.54.45-2.46.45-.92 0-1.74-.15-2.47-.45a3.95 3.95 0 0 1-1.73-1.38 3.87 3.87 0 0 1-.63-2.26 3.58 3.58 0 0 1 1.37-2.87c.43-.35.94-.62 1.53-.8a6.2 6.2 0 0 1 1.91-.28c.93 0 1.75.16 2.48.49.73.32 1.3.78 1.72 1.37.42.6.63 1.3.63 2.1Zm-2.83-.18c0-.44-.08-.81-.25-1.13-.16-.31-.4-.56-.7-.73-.3-.17-.64-.25-1.04-.25s-.74.08-1.04.25c-.3.17-.54.42-.7.73a2.4 2.4 0 0 0-.25 1.13c0 .43.08.8.24 1.11.17.31.4.55.7.72.31.17.67.25 1.07.25s.75-.08 1.05-.25c.3-.17.52-.4.68-.72.16-.31.24-.68.24-1.11Zm2.53-6.37c0 .72-.19 1.37-.57 1.92-.39.56-.92 1-1.6 1.3-.68.32-1.46.47-2.33.47-.88 0-1.66-.15-2.34-.47a3.84 3.84 0 0 1-1.6-1.3 3.32 3.32 0 0 1-.58-1.92c0-.86.2-1.58.58-2.17.39-.59.92-1.04 1.6-1.34.68-.31 1.46-.46 2.32-.46.88 0 1.66.15 2.34.45a3.62 3.62 0 0 1 2.18 3.52Zm-2.8.13c0-.39-.08-.72-.21-1-.14-.29-.34-.5-.59-.66a1.68 1.68 0 0 0-.92-.24c-.35 0-.65.08-.9.23a1.5 1.5 0 0 0-.58.65c-.13.28-.2.62-.2 1.02 0 .38.07.72.2 1.01.13.29.33.51.58.68.26.16.56.24.92.24s.66-.08.91-.24c.25-.17.45-.39.58-.68.13-.29.2-.63.2-1.01ZM16.9 138.67v14.25h-2.82v-11l-3.38 1.07v-2.22l5.89-2.1h.3Zm14.28.03v1.51l-5.5 12.7h-2.97l5.5-12.01h-7.08v-2.2h10.05ZM27.28 163.75V178h-2.81v-11l-3.38 1.07v-2.22l5.89-2.1h.3Zm11.89-.12h.4v2.25h-.16c-.74 0-1.4.11-1.98.33a4.08 4.08 0 0 0-2.4 2.41 5.6 5.6 0 0 0-.3 1.93v2.36c0 .51.04.96.14 1.35.1.38.25.7.44.97.2.25.42.44.68.57a2.03 2.03 0 0 0 1.71 0c.25-.14.47-.32.65-.55.18-.25.31-.53.4-.84a3.7 3.7 0 0 0 0-2.13c-.09-.33-.22-.6-.4-.84a1.88 1.88 0 0 0-1.55-.75 2.2 2.2 0 0 0-1.95 1.09 2.1 2.1 0 0 0-.3 1l-.85-.54a3.91 3.91 0 0 1 1.11-2.62c.35-.35.76-.62 1.24-.82.48-.2 1.03-.3 1.63-.3a3.6 3.6 0 0 1 3.02 1.43c.34.44.6.95.76 1.53.17.58.25 1.2.25 1.85 0 .7-.1 1.33-.34 1.93a4.5 4.5 0 0 1-4.44 2.95 4.68 4.68 0 0 1-3.64-1.58 5.3 5.3 0 0 1-1.03-1.78 7 7 0 0 1-.35-2.27v-1.1c0-1.14.17-2.19.5-3.14.34-.95.82-1.78 1.45-2.48s1.4-1.25 2.29-1.63c.89-.38 1.9-.58 3.02-.58ZM43.8 185.3v14.24H41v-11l-3.38 1.07v-2.22l5.89-2.1h.3Zm7.28 7.76-2.24-.53.8-7.21h8v2.28h-5.68l-.35 3.15a4.54 4.54 0 0 1 2.15-.55c.69 0 1.3.11 1.84.33.53.21.98.52 1.35.93.38.41.67.91.86 1.5a6.41 6.41 0 0 1 0 3.82 4.16 4.16 0 0 1-2.38 2.57c-.6.26-1.3.38-2.13.38-.61 0-1.2-.09-1.78-.27a4.85 4.85 0 0 1-1.53-.81 3.94 3.94 0 0 1-1.5-3.06h2.79c.04.4.14.76.31 1.05.18.29.4.5.7.66.28.16.62.24 1 .24.36 0 .66-.07.92-.2.25-.15.46-.33.61-.57.16-.25.27-.54.35-.86a4.68 4.68 0 0 0-.02-2.12c-.1-.31-.23-.59-.42-.81-.2-.23-.43-.4-.73-.53a2.53 2.53 0 0 0-1-.19c-.52 0-.93.09-1.21.25a2.9 2.9 0 0 0-.7.56ZM65.35 201.82v14.25h-2.81v-11l-3.38 1.06v-2.21l5.88-2.1h.3Zm14.59 8.93v2.21H69.69l-.13-1.7 5.92-9.41h2.24l-2.42 4.05-2.95 4.85h7.59Zm-1.61-8.9v14.22H75.5v-14.22h2.82ZM90.43 212.2v14.26h-2.81v-11.01l-3.38 1.08v-2.22l5.89-2.1h.3Zm7.51 5.93h1.5c.49 0 .88-.09 1.2-.25.3-.17.54-.4.69-.7.16-.3.23-.66.23-1.07 0-.36-.07-.68-.21-.96-.14-.29-.35-.51-.64-.67a2.17 2.17 0 0 0-1.08-.24c-.35 0-.66.07-.96.2-.29.14-.52.33-.7.58-.18.25-.26.55-.26.9h-2.83c0-.78.21-1.46.63-2.04.42-.58.99-1.03 1.7-1.36a6.34 6.34 0 0 1 4.87-.02c.72.3 1.29.76 1.69 1.36.4.6.6 1.34.6 2.22 0 .45-.1.9-.3 1.31-.21.42-.51.8-.9 1.14-.39.33-.86.6-1.41.8-.56.2-1.18.29-1.87.29h-1.95v-1.5Zm0 2.13v-1.45h1.95c.78 0 1.46.09 2.04.26.59.18 1.08.43 1.48.77.4.32.7.7.9 1.16a4 4 0 0 1-.08 3.25c-.26.51-.61.95-1.08 1.3a4.9 4.9 0 0 1-1.6.83 7 7 0 0 1-3.77.03 5.23 5.23 0 0 1-1.56-.75 3.86 3.86 0 0 1-1.11-1.27 3.84 3.84 0 0 1-.41-1.83h2.82c0 .36.1.69.27.98.19.28.44.5.76.67.32.16.68.24 1.08.24.45 0 .83-.08 1.15-.24.33-.17.58-.4.74-.7.18-.3.27-.66.27-1.07 0-.52-.1-.94-.29-1.25a1.68 1.68 0 0 0-.8-.7 3.19 3.19 0 0 0-1.26-.23h-1.5ZM117.35 215.75V230h-2.81v-11l-3.38 1.07v-2.22l5.89-2.1h.3Zm14.35 12.05v2.2h-9.72v-1.88l4.6-4.93c.46-.51.82-.96 1.09-1.35.27-.4.46-.76.58-1.07a2.59 2.59 0 0 0-.03-2.01 1.6 1.6 0 0 0-.64-.72 1.9 1.9 0 0 0-1.01-.26c-.43 0-.8.1-1.12.32-.3.2-.54.5-.7.87-.16.37-.23.79-.23 1.25h-2.83a4.59 4.59 0 0 1 2.32-4c.73-.43 1.6-.64 2.61-.64 1 0 1.84.16 2.53.48a3.4 3.4 0 0 1 1.56 1.4c.35.59.53 1.3.53 2.14 0 .47-.07.93-.22 1.38-.15.44-.37.88-.65 1.33-.27.43-.6.87-1 1.32-.38.45-.81.92-1.29 1.4l-2.47 2.77h6.1ZM144.26 212.2v14.26h-2.8v-11.01l-3.39 1.08v-2.22l5.9-2.1h.3Zm11.49 0v14.26h-2.81v-11.01l-3.38 1.08v-2.22l5.89-2.1h.3ZM169.35 201.82v14.25h-2.81v-11l-3.38 1.06v-2.21l5.88-2.1h.3Zm14.2 5.89v2.46c0 1.07-.12 1.99-.34 2.76-.23.77-.56 1.4-1 1.9-.41.48-.92.85-1.5 1.08a5.75 5.75 0 0 1-3.56.14 4.06 4.06 0 0 1-2.35-1.88 6.07 6.07 0 0 1-.65-1.72 10.5 10.5 0 0 1-.22-2.28v-2.46c0-1.07.11-1.99.34-2.75.23-.77.56-1.4.99-1.88.43-.49.93-.85 1.52-1.08a5.22 5.22 0 0 1 1.95-.35c.58 0 1.1.08 1.6.23a3.98 3.98 0 0 1 2.35 1.85c.28.48.5 1.05.64 1.71.15.66.23 1.41.23 2.27Zm-2.83 2.83v-3.21c0-.52-.03-.97-.08-1.35a3.99 3.99 0 0 0-.25-.98c-.1-.27-.24-.5-.4-.66-.17-.17-.36-.3-.56-.37-.21-.08-.44-.12-.7-.12a1.58 1.58 0 0 0-1.46.78c-.17.27-.3.63-.4 1.08-.08.44-.12.98-.12 1.62v3.2c0 .52.03.98.08 1.37.06.39.14.72.25 1 .12.28.26.5.41.68.16.17.35.29.56.37a2.02 2.02 0 0 0 1.53-.07c.25-.13.46-.33.63-.6.17-.29.3-.65.39-1.1.08-.45.13-1 .13-1.64ZM191.77 197.4h.18c.78 0 1.45-.1 2.01-.28a3.36 3.36 0 0 0 2.2-2.18 5.8 5.8 0 0 0 .27-1.82v-2.7c0-.5-.05-.96-.15-1.35-.1-.39-.24-.71-.43-.97s-.4-.45-.65-.58a1.65 1.65 0 0 0-1.63.04c-.24.15-.44.35-.61.61a3.3 3.3 0 0 0-.38.9 4.25 4.25 0 0 0 0 2.09c.08.33.2.62.38.87.17.25.38.44.63.6.26.14.56.21.9.21a2.04 2.04 0 0 0 1.56-.7c.2-.2.33-.43.43-.69a2 2 0 0 0 .16-.77l.93.51c0 .46-.1.9-.3 1.35a4.12 4.12 0 0 1-2.02 2.07 3.4 3.4 0 0 1-1.46.32 3.86 3.86 0 0 1-3.08-1.38 4.6 4.6 0 0 1-.8-1.52 6.25 6.25 0 0 1 .06-3.83 5 5 0 0 1 .97-1.6 4.75 4.75 0 0 1 3.49-1.48 4.37 4.37 0 0 1 3.5 1.61c.41.5.74 1.11.97 1.82.23.71.35 1.5.35 2.37v.97c0 .93-.1 1.79-.3 2.58-.2.8-.5 1.51-.9 2.16a6.1 6.1 0 0 1-3.48 2.68c-.77.25-1.63.37-2.58.37h-.22v-2.28ZM215.88 174.1c0 .9-.2 1.65-.62 2.26-.42.6-1 1.06-1.72 1.38-.72.3-1.55.45-2.46.45-.92 0-1.75-.15-2.47-.45a3.94 3.94 0 0 1-1.73-1.38 3.87 3.87 0 0 1-.64-2.26 3.58 3.58 0 0 1 1.37-2.87c.44-.35.95-.62 1.53-.8a6.2 6.2 0 0 1 1.92-.28c.92 0 1.75.16 2.48.49.73.32 1.3.78 1.72 1.37.41.6.62 1.3.62 2.1Zm-2.83-.18c0-.44-.09-.81-.26-1.13-.16-.31-.39-.56-.69-.73a2.1 2.1 0 0 0-1.04-.25c-.4 0-.75.08-1.05.25-.3.17-.53.42-.7.73a2.4 2.4 0 0 0-.25 1.13c0 .43.09.8.25 1.11.17.31.4.56.7.72.3.17.66.25 1.07.25.4 0 .75-.08 1.04-.25.3-.16.53-.4.69-.72.16-.31.24-.68.24-1.11Zm2.53-6.37c0 .72-.2 1.36-.58 1.92-.38.56-.92 1-1.6 1.3-.68.32-1.45.47-2.32.47-.88 0-1.66-.15-2.35-.47a3.84 3.84 0 0 1-1.6-1.3 3.32 3.32 0 0 1-.57-1.92c0-.86.19-1.58.57-2.17.4-.59.93-1.04 1.6-1.34.69-.31 1.46-.46 2.33-.46.88 0 1.65.15 2.33.45a3.62 3.62 0 0 1 2.19 3.52Zm-2.81.13c0-.39-.07-.72-.2-1-.15-.28-.34-.5-.6-.66a1.68 1.68 0 0 0-.91-.24c-.35 0-.66.08-.91.23a1.5 1.5 0 0 0-.58.65c-.13.28-.2.62-.2 1.02 0 .38.07.72.2 1.01.14.29.33.51.59.68.25.16.56.24.92.24.35 0 .66-.08.9-.24.26-.17.45-.39.58-.68.14-.29.2-.63.2-1.01ZM226.35 138.7v1.51l-5.5 12.7h-2.97l5.5-12.01h-7.08v-2.2h10.05ZM227.49 111.64h.41v2.24h-.17c-.74 0-1.4.11-1.98.33a4.08 4.08 0 0 0-2.4 2.42 5.6 5.6 0 0 0-.3 1.92v2.36c0 .51.05.96.14 1.35.1.38.25.7.44.97.2.25.43.44.69.57a2.04 2.04 0 0 0 1.7 0c.26-.14.47-.32.65-.55.18-.25.32-.53.41-.84a3.69 3.69 0 0 0 0-2.13 2.4 2.4 0 0 0-.41-.84 1.88 1.88 0 0 0-1.54-.75 2.2 2.2 0 0 0-1.96 1.09 2.1 2.1 0 0 0-.3 1l-.85-.54a3.9 3.9 0 0 1 1.11-2.62c.35-.35.76-.62 1.24-.82.49-.2 1.03-.3 1.64-.3a3.6 3.6 0 0 1 3.02 1.43c.33.44.59.95.75 1.53.17.58.26 1.2.26 1.85 0 .7-.11 1.33-.34 1.93a4.48 4.48 0 0 1-2.47 2.58c-.59.25-1.25.38-1.98.38a4.68 4.68 0 0 1-3.64-1.58c-.44-.5-.78-1.1-1.02-1.8a7.01 7.01 0 0 1-.36-2.26v-1.1c0-1.14.17-2.19.5-3.14.34-.95.83-1.78 1.46-2.48s1.4-1.25 2.28-1.63c.9-.38 1.9-.57 3.02-.57ZM219.34 92.6l-2.25-.53.81-7.2h7.99v2.27h-5.67l-.35 3.15a4.52 4.52 0 0 1 2.14-.54c.7 0 1.3.1 1.84.32.53.21.99.53 1.36.94.37.4.66.9.86 1.5a6.42 6.42 0 0 1 0 3.82 4.14 4.14 0 0 1-2.38 2.57c-.6.25-1.32.38-2.14.38-.6 0-1.2-.1-1.77-.28a4.88 4.88 0 0 1-1.54-.8 3.93 3.93 0 0 1-1.5-3.06h2.8c.03.4.14.75.3 1.04.18.29.41.51.7.67.28.15.62.23 1 .23.36 0 .67-.07.92-.2.26-.14.46-.33.62-.57.15-.25.27-.53.34-.86a4.69 4.69 0 0 0-.02-2.12c-.1-.31-.23-.58-.42-.81-.19-.23-.43-.4-.72-.53a2.52 2.52 0 0 0-1-.18c-.53 0-.93.08-1.22.24-.28.16-.51.35-.7.56ZM216.26 68.69v2.2h-10.24l-.14-1.7 5.93-9.4h2.23l-2.42 4.04-2.95 4.86h7.6Zm-1.6-8.9V74h-2.82V59.78h2.81ZM192.65 44.13h1.5c.49 0 .89-.08 1.2-.24.31-.17.54-.4.7-.7.15-.31.23-.67.23-1.07 0-.37-.07-.69-.22-.97-.13-.28-.35-.5-.63-.66a2.17 2.17 0 0 0-1.09-.25c-.34 0-.66.07-.95.2-.3.15-.53.34-.7.59-.18.24-.27.54-.27.9h-2.82c0-.79.2-1.47.62-2.05.43-.58 1-1.03 1.7-1.35a6.33 6.33 0 0 1 4.87-.02c.73.3 1.3.75 1.7 1.35.4.6.6 1.34.6 2.23 0 .45-.1.89-.31 1.3-.21.43-.51.8-.9 1.14-.38.33-.85.6-1.4.8-.56.2-1.18.3-1.87.3h-1.96v-1.5Zm0 2.14v-1.46h1.96c.77 0 1.45.1 2.04.27a4.1 4.1 0 0 1 1.47.76c.4.33.7.71.9 1.16a4 4 0 0 1-.08 3.25c-.25.52-.6.95-1.07 1.31a4.9 4.9 0 0 1-1.6.82 7 7 0 0 1-3.77.03 5.25 5.25 0 0 1-1.56-.75 3.86 3.86 0 0 1-1.12-1.27 3.84 3.84 0 0 1-.4-1.83h2.81a1.78 1.78 0 0 0 1.03 1.65c.33.17.69.25 1.08.25.45 0 .84-.08 1.16-.25.32-.16.57-.4.74-.7.17-.3.26-.66.26-1.06 0-.52-.1-.94-.28-1.25a1.68 1.68 0 0 0-.81-.7 3.17 3.17 0 0 0-1.25-.23h-1.5ZM177.96 33.74v2.2h-9.73v-1.88l4.6-4.93c.47-.52.83-.97 1.1-1.36.26-.4.46-.75.57-1.07a2.59 2.59 0 0 0-.03-2.01 1.6 1.6 0 0 0-.63-.72 1.9 1.9 0 0 0-1.02-.25c-.42 0-.8.1-1.1.3-.31.22-.55.5-.71.88-.16.37-.24.79-.24 1.26h-2.82a4.58 4.58 0 0 1 2.32-4.02c.73-.42 1.6-.63 2.61-.63 1 0 1.84.16 2.52.49a3.4 3.4 0 0 1 1.56 1.38c.36.6.54 1.32.54 2.15 0 .47-.07.93-.22 1.38-.15.44-.37.89-.65 1.33-.27.43-.6.88-1 1.33-.38.45-.82.91-1.3 1.4l-2.46 2.77h6.1ZM150 11.3v14.24h-2.8v-11l-3.38 1.07V13.4l5.88-2.1h.3Z" fill="#57648F"/></svg>